<?xml version="1.0" encoding="UTF-8" standalone="no"?>
<!-- Created with Inkscape (http://www.inkscape.org/) -->

<svg
   width="4371.1841"
   height="1673.5631"
   viewBox="0 0 1156.5424 442.7969"
   version="1.1"
   id="svg1"
   inkscape:version="1.3.2 (091e20ef0f, 2023-11-25)"
   sodipodi:docname="Redot Logo &amp; Wordmark - Horizontal - Black (no outline).svg"
   xmlns:inkscape="http://www.inkscape.org/namespaces/inkscape"
   xmlns:sodipodi="http://sodipodi.sourceforge.net/DTD/sodipodi-0.dtd"
   xmlns="http://www.w3.org/2000/svg"
   xmlns:svg="http://www.w3.org/2000/svg"
   xmlns:rdf="http://www.w3.org/1999/02/22-rdf-syntax-ns#"
   xmlns:cc="http://creativecommons.org/ns#"
   xmlns:dc="http://purl.org/dc/elements/1.1/">
  <sodipodi:namedview
     id="namedview1"
     pagecolor="#ffffff"
     bordercolor="#000000"
     borderopacity="0.25"
     inkscape:showpageshadow="2"
     inkscape:pageopacity="0.0"
     inkscape:pagecheckerboard="true"
     inkscape:deskcolor="#d1d1d1"
     inkscape:document-units="px"
     inkscape:zoom="0.34088255"
     inkscape:cx="2910.0933"
     inkscape:cy="1176.3583"
     inkscape:window-width="1920"
     inkscape:window-height="938"
     inkscape:window-x="0"
     inkscape:window-y="0"
     inkscape:window-maximized="1"
     inkscape:current-layer="g17"
     showguides="true">
    <sodipodi:guide
       position="72.306631,195.68117"
       orientation="1,0"
       id="guide2"
       inkscape:locked="false" />
    <sodipodi:guide
       position="932.51722,93.982883"
       orientation="0,-1"
       id="guide3"
       inkscape:locked="false" />
    <sodipodi:guide
       position="1084.3659,296.75161"
       orientation="1,0"
       id="guide4"
       inkscape:locked="false" />
    <sodipodi:guide
       position="572.75948,442.7969"
       orientation="0,-1"
       id="guide5"
       inkscape:locked="false" />
    <sodipodi:guide
       position="559.01325,-5.3954778e-06"
       orientation="0,-1"
       id="guide6"
       inkscape:locked="false" />
    <sodipodi:guide
       position="0,215.22046"
       orientation="1,0"
       id="guide7"
       inkscape:locked="false" />
    <sodipodi:guide
       position="1156.5425,296.61932"
       orientation="1,0"
       id="guide8"
       inkscape:locked="false" />
    <sodipodi:guide
       position="433.58627,346.74451"
       orientation="0,-1"
       id="guide9"
       inkscape:locked="false" />
    <sodipodi:guide
       position="605.51288,167.11461"
       orientation="0,-1"
       id="guide10"
       inkscape:locked="false" />
    <sodipodi:guide
       position="361.54202,195.68029"
       orientation="1,0"
       id="guide11"
       inkscape:locked="false" />
    <sodipodi:guide
       position="433.58628,283.64454"
       orientation="1,0"
       id="guide12"
       inkscape:locked="false" />
    <sodipodi:guide
       position="433.58627,196.03815"
       orientation="0,-1"
       id="guide13"
       inkscape:locked="false" />
    <sodipodi:guide
       position="585.43493,166.12188"
       orientation="1,0"
       id="guide14"
       inkscape:locked="false" />
    <sodipodi:guide
       position="932.51721,167.11461"
       orientation="1,0"
       id="guide15"
       inkscape:locked="false" />
    <sodipodi:guide
       position="178.13486,370.48882"
       orientation="0,-1"
       id="guide16"
       inkscape:locked="false" />
    <sodipodi:guide
       position="216.92433,72.308044"
       orientation="0,-1"
       id="guide17"
       inkscape:locked="false" />
  </sodipodi:namedview>
  <defs
     id="defs1" />
  <g
     inkscape:label="Layer 1"
     inkscape:groupmode="layer"
     id="layer1">
    <path
       id="path24"
       style="fill:#000000;fill-opacity:1;stroke-width:0.471226"
       d="m 178.13486,72.308074 -7.36809,23.275344 c -8.02565,3.470516 -16.05143,6.940962 -24.07605,10.413792 -8.51486,-1.79304 -17.05132,-3.87005 -25.67977,-4.91066 -1.36212,1.53269 -35.826293,54.53131 -35.816556,55.0789 1.587856,3.88768 4.31467,7.23195 6.377109,10.87007 l 125.352827,44.02729 125.35281,-44.02729 c 2.06251,-3.63812 4.78926,-6.98238 6.37711,-10.87007 0.007,-0.54752 -34.45443,-53.54621 -35.81655,-55.0789 -8.62846,1.04061 -17.16484,3.11762 -25.67978,4.91066 -8.02468,-3.47283 -16.05046,-6.943276 -24.07611,-10.413792 L 255.71379,72.308074 Z M 101.1182,183.04819 c -0.15526,-0.0477 -0.46783,0.18386 -0.47941,0.26218 -1.509885,12.31009 -4.460677,36.93861 -4.460677,36.93861 l 7.637887,33.01606 57.78454,26.25004 55.32345,-20.68643 55.32351,20.68643 57.78453,-26.25004 7.63789,-33.01606 c 0,0 -2.95079,-24.62852 -4.46067,-36.93861 -0.0136,-0.10487 -0.56522,-0.48486 -0.56522,-0.10079 -37.82805,13.44549 -77.28721,26.46707 -115.72039,39.72924 -38.43304,-13.26217 -77.89219,-26.28375 -115.72038,-39.72924 0,-0.096 -0.0341,-0.14436 -0.0858,-0.16139 z m 29.06123,29.42637 c 18.149,6.2599 36.44666,12.4765 54.74351,18.69236 a 29.460818,29.452732 0 0 1 -1.38438,5.62911 29.460818,29.452732 0 0 1 -37.84133,17.4269 29.460818,29.452732 0 0 1 -17.43165,-37.83099 29.460818,29.452732 0 0 1 1.91385,-3.91738 z m 173.48979,0 a 29.460818,29.452732 0 0 1 1.91392,3.91737 29.460818,29.452732 0 0 1 -17.43179,37.83099 29.460818,29.452732 0 0 1 -37.84133,-17.42689 29.460818,29.452732 0 0 1 -1.38431,-5.62911 c 18.29684,-6.21586 36.59458,-12.43246 54.74351,-18.69236 z m -217.486305,20.89563 -13.876285,13.74642 20.787907,72.87386 65.702303,26.94321 -3.53528,-56.6897 -62.308266,-28.98768 z m 261.482885,0 -6.77051,27.88611 -62.30821,28.98768 -3.53528,56.6897 65.70232,-26.94321 20.7879,-72.87387 z m -130.74147,37.53605 -49.26913,19.49402 2.99056,61.23987 46.27857,18.84872 46.27856,-18.84872 2.99063,-61.23987 z"
       inkscape:label="Symbol" />
    <g
       id="g17"
       inkscape:label="Wordmark">
      <path
         id="text40-5"
         style="font-weight:800;font-size:16.115px;font-family:Heebo;-inkscape-font-specification:'Heebo Ultra-Bold';letter-spacing:0px;fill:#000000;fill-opacity:1;stroke-width:0.259998;stroke-opacity:0.968628"
         inkscape:label="Redot"
         d="m 887.68565,93.982918 c -12.76754,0 -24.08991,3.03313 -33.95581,9.105702 -9.86912,6.00352 -17.59715,14.59607 -23.18729,25.77505 -5.51908,11.11002 -8.27702,24.39825 -8.27702,39.85565 v 5.47801 c 0,15.4574 2.79507,28.7821 8.38198,39.96112 5.59175,11.10999 13.31977,19.66603 23.18729,25.66958 9.93533,6.00355 21.28515,9.00019 34.05269,9.00019 12.76753,0 24.05115,-2.99664 33.85085,-9.00019 9.86751,-6.00355 17.55839,-14.55959 23.08071,-25.66958 5.58852,-11.17902 8.38359,-24.50372 8.38359,-39.96112 v -5.47801 c 0,-15.4574 -2.79507,-28.74563 -8.38359,-39.85565 -5.59014,-11.17898 -13.31977,-19.77153 -23.18567,-25.77505 -9.86913,-6.072572 -21.18343,-9.105702 -33.94773,-9.105702 z m -454.09938,2.06946 V 246.75874 h 35.09095 v -53.19763 h 20.86532 l 26.64277,53.19763 h 37.57438 v -1.55012 L 522.1436,184.30118 c 4.05455,-1.95205 7.75386,-4.16705 11.02042,-6.68724 4.82961,-3.79536 8.58867,-8.58429 11.28039,-14.38081 2.69173,-5.79652 4.03194,-12.97387 4.03194,-21.53065 0,-9.93689 -2.3058,-18.29018 -6.93035,-25.05279 -4.55349,-6.76262 -11.07694,-11.87192 -19.56548,-15.32221 -8.41911,-3.519332 -18.4917,-5.275152 -30.2242,-5.275152 z m 136.73877,0 V 246.75874 h 23.38912 11.79871 67.79859 v -28.25845 h -67.79859 v -35.49757 h 57.45151 v -27.33327 h -57.45151 v -31.2531 h 67.79859 V 96.052378 h -67.79859 -11.79871 z m 118.82998,0 V 246.75874 h 15.00392 20.1823 12.73363 c 13.6637,0 25.70462,-3.03314 36.12437,-9.10569 10.41975,-6.14155 18.59665,-14.63272 24.53396,-25.46668 5.93245,-10.903 8.90029,-23.49375 8.90029,-37.77804 v -5.90004 c 0,-14.3533 -2.96784,-26.94404 -8.90029,-37.77801 -5.93731,-10.903 -14.15136,-19.39414 -24.64053,-25.46671 -10.41975,-6.141552 -22.45905,-9.211192 -36.12275,-9.211192 h -12.62868 -20.80558 z m 270.38538,0 v 28.363972 h 44.5047 v 122.34239 h 34.9876 V 124.41635 h 45.3332 V 96.052378 h -45.3332 -34.9876 z m -71.85475,26.708392 c 6.34744,0 11.76157,1.71931 16.24563,5.16963 4.48567,3.4503 7.86689,8.5961 10.14363,15.42771 2.34779,6.76261 3.5233,15.14427 3.5233,25.15018 v 5.68904 c 0,9.86789 -1.14644,18.22117 -3.41512,25.05279 -2.27836,6.83163 -5.65957,12.0423 -10.14524,15.63063 -4.41624,3.51931 -9.80132,5.27512 -16.15036,5.27512 -6.48631,0 -11.97311,-1.75581 -16.45716,-5.27512 -4.41786,-3.58833 -7.79907,-8.799 -10.14525,-15.63063 -2.27997,-6.83162 -3.41673,-15.1849 -3.41673,-25.05279 v -5.68904 c 0,-10.00591 1.1303,-18.38757 3.41673,-25.15018 2.27513,-6.83161 5.62243,-11.97741 10.03867,-15.42771 4.41625,-3.45032 9.87236,-5.16963 16.3619,-5.16963 z m -419.00843,1.65558 h 23.0791 c 7.24683,0 12.66096,1.82879 16.25047,5.48613 3.58628,3.65733 5.38829,8.65715 5.38829,15.00571 0,4.27839 -0.83964,7.936 -2.49311,10.97227 -1.58242,3.03627 -3.9948,5.35169 -7.23876,6.93881 -3.24396,1.5871 -7.28559,2.37787 -12.11681,2.37787 h -22.86918 z m 255.66402,0 h 12.62868 c 7.45351,0 13.70084,1.65443 18.74036,4.96672 5.0379,3.2433 8.83248,8.10525 11.38373,14.59183 2.62391,6.4866 3.9286,14.5925 3.9286,24.32241 v 6.11102 c 0,9.66088 -1.30792,17.7668 -3.9286,24.3224 -2.55125,6.5556 -6.34583,11.49052 -11.38373,14.80281 -5.03952,3.31229 -11.25294,4.96675 -18.63541,4.96675 h -12.73363 z" />
      <text
         xml:space="preserve"
         style="font-weight:800;font-size:100.544px;line-height:normal;font-family:Heebo;-inkscape-font-specification:'Heebo Ultra-Bold';text-align:end;text-decoration-color:#000000;letter-spacing:0px;text-anchor:end;fill:#000000;fill-opacity:1;stroke-width:23.733;paint-order:stroke fill markers"
         x="753.30243"
         y="349.55692"
         id="text28"
         transform="scale(1.0049447,0.99507963)"
         inkscape:label="Engine"><tspan
           sodipodi:role="line"
           id="tspan28"
           style="text-align:center;letter-spacing:0px;text-anchor:middle;fill:#000000;fill-opacity:1;stroke-width:23.733"
           x="753.30243"
           y="349.55692">ENGINE</tspan></text>
    </g>
  </g>
  <metadata
     id="metadata3">
    <rdf:RDF>
      <cc:Work
         rdf:about="">
        <dc:creator>
          <cc:Agent>
            <dc:title>A. Irsyad</dc:title>
          </cc:Agent>
        </dc:creator>
        <dc:description>Created for Redot Engine</dc:description>
      </cc:Work>
    </rdf:RDF>
  </metadata>
</svg>
